<?xml version="1.0" standalone="no"?><!DOCTYPE svg PUBLIC "-//W3C//DTD SVG 1.1//EN" "http://www.w3.org/Graphics/SVG/1.1/DTD/svg11.dtd"><svg t="1507469605423" class="icon" style="" viewBox="0 0 1024 1024" version="1.1" xmlns="http://www.w3.org/2000/svg" p-id="1441" xmlns:xlink="http://www.w3.org/1999/xlink" width="200" height="200"><defs><style type="text/css"></style></defs><path d="M739.84 495.04c-36.8-7.2-18.88-26.88-18.88-26.88s36-59.36-7.2-102.56c-53.44-53.44-183.52 6.72-183.52 6.72-49.6 15.36-36.48-7.04-29.44-45.12 0-44.96-15.36-120.96-147.68-76.16C220.96 296.32 107.52 454.56 107.52 454.56c-78.88 105.12-68.48 186.4-68.48 186.4C58.72 820.48 249.6 869.76 398.08 881.44c156.16 12.16 367.04-53.76 430.88-189.44C892.96 556.16 776.8 502.4 739.84 495.04zM409.6 830.88c-155.04 7.2-280.48-70.4-280.48-173.76 0-103.52 125.44-186.4 280.48-193.6 155.2-7.2 280.8 56.8 280.8 160C690.4 726.72 564.8 823.84 409.6 830.88z" p-id="1442"></path><path d="M378.72 531.52c-156 18.24-137.92 164.16-137.92 164.16s-1.6 46.24 41.76 69.76c91.2 49.44 185.28 19.52 232.64-41.76C562.72 662.56 534.88 513.44 378.72 531.52zM339.36 736.48c-29.12 3.36-52.64-13.44-52.64-37.76 0-24.16 20.8-49.6 49.92-52.64 33.44-3.2 55.2 16 55.2 40.48C392 710.72 368.32 733.12 339.36 736.48zM431.36 658.24c-9.92 7.36-22.08 6.4-27.2-2.56-5.44-8.64-3.36-22.4 6.56-29.6 11.52-8.64 23.52-6.08 28.8 2.56C444.64 637.28 440.96 650.56 431.36 658.24z" p-id="1443"></path><path d="M815.84 431.84c12.64 0 23.2-9.28 25.12-21.44 0.16-0.96 0.32-1.76 0.32-2.72 19.04-171.04-140.32-141.6-140.32-141.6-14.08 0-25.44 11.36-25.44 25.76 0 14.08 11.36 25.44 25.44 25.44 114.4-25.28 89.28 89.12 89.28 89.12C790.08 420.48 801.6 431.84 815.84 431.84z" p-id="1444"></path><path d="M797.28 133.28c-55.04-12.96-111.84-1.76-127.68 1.28-1.28 0.16-2.4 1.28-3.52 1.44-0.48 0.16-0.96 0.64-0.96 0.64-15.68 4.48-27.04 18.88-27.04 36 0 20.32 16.48 37.12 37.12 37.12 0 0 20-2.72 33.6-8 13.44-5.44 127.68-4 184.32 91.04 30.88 69.44 13.6 115.84 11.36 123.36 0 0-7.36 18.08-7.36 35.84 0 20.48 16.48 33.44 37.12 33.44 17.12 0 31.52-2.4 35.68-31.36h0.16000000000000003C1031.2 251.36 895.84 156.16 797.28 133.28z" p-id="1445"></path></svg>