<svg class="icon" viewBox="0 0 1024 1024" xmlns="http://www.w3.org/2000/svg" width="200" height="200"><defs><style/></defs><path d="M739.84 495.04c-36.8-7.2-18.88-26.88-18.88-26.88s36-59.36-7.2-102.56c-53.44-53.44-183.52 6.72-183.52 6.72-49.6 15.36-36.48-7.04-29.44-45.12 0-44.96-15.36-120.96-147.68-76.16-132.16 45.28-245.6 203.52-245.6 203.52-78.88 105.12-68.48 186.4-68.48 186.4 19.68 179.52 210.56 228.8 359.04 240.48C554.24 893.6 765.12 827.68 828.96 692c64-135.84-52.16-189.6-89.12-196.96zM409.6 830.88c-155.04 7.2-280.48-70.4-280.48-173.76 0-103.52 125.44-186.4 280.48-193.6 155.2-7.2 280.8 56.8 280.8 160S564.8 823.84 409.6 830.88z"/><path d="M378.72 531.52c-156 18.24-137.92 164.16-137.92 164.16s-1.6 46.24 41.76 69.76c91.2 49.44 185.28 19.52 232.64-41.76 47.52-61.12 19.68-210.24-136.48-192.16zm-39.36 204.96c-29.12 3.36-52.64-13.44-52.64-37.76 0-24.16 20.8-49.6 49.92-52.64 33.44-3.2 55.2 16 55.2 40.48.16 24.16-23.52 46.56-52.48 49.92zm92-78.24c-9.92 7.36-22.08 6.4-27.2-2.56-5.44-8.64-3.36-22.4 6.56-29.6 11.52-8.64 23.52-6.08 28.8 2.56 5.12 8.64 1.44 21.92-8.16 29.6zM815.84 431.84c12.64 0 23.2-9.28 25.12-21.44.16-.96.32-1.76.32-2.72 19.04-171.04-140.32-141.6-140.32-141.6-14.08 0-25.44 11.36-25.44 25.76 0 14.08 11.36 25.44 25.44 25.44 114.4-25.28 89.28 89.12 89.28 89.12-.16 14.08 11.36 25.44 25.6 25.44z"/><path d="M797.28 133.28c-55.04-12.96-111.84-1.76-127.68 1.28-1.28.16-2.4 1.28-3.52 1.44-.48.16-.96.64-.96.64-15.68 4.48-27.04 18.88-27.04 36 0 20.32 16.48 37.12 37.12 37.12 0 0 20-2.72 33.6-8 13.44-5.44 127.68-4 184.32 91.04 30.88 69.44 13.6 115.84 11.36 123.36 0 0-7.36 18.08-7.36 35.84 0 20.48 16.48 33.44 37.12 33.44 17.12 0 31.52-2.4 35.68-31.36h.16c61.12-202.72-74.24-297.92-172.8-320.8z"/></svg>